<?xml version="1.0" encoding="utf-8"?>
<!-- Generator: Adobe Illustrator 20.1.0, SVG Export Plug-In . SVG Version: 6.00 Build 0)  -->
<svg version="1.1" xmlns="http://www.w3.org/2000/svg" xmlns:xlink="http://www.w3.org/1999/xlink" x="0px" y="0px" width="813.4px"
	 height="172.7px" viewBox="0 0 813.4 172.7" style="enable-background:new 0 0 813.4 172.7;" xml:space="preserve">
<g  mask="url(#masking)" fill="#fff">
    <image xlink:href="images/first_text.svg" />
</g>
<mask id="masking" maskUnits="objectBoundingBox">
	<line class="st3" x1="28" y1="23.9" x2="38.2" y2="135.2"/>
	<path class="st3" d="M19.7,66.1c0,0,35.4-31.2,43-7.6s9.8,78.4-34.7,69.1"stroke="#fff" stroke-width="15" stroke-miterlimit="10" fill="none"/>
	<path class="st3" d="M82.9,89.2c0,0,3.4,26.7,16.9,12.3s-8.4-17.7-8.4-17.7l-13.5,21.9"stroke="#fff" stroke-width="15" stroke-miterlimit="10" fill="none"/>
	<path class="st3" d="M166.4,79.6c0,0,11.8,37.9,27-3.4L174,140.3h25.3V99c0,0,22.8,18.4,17.7-9.8c0,0-10.1-11.3-18.4,6.8"stroke="#fff" stroke-width="15" stroke-miterlimit="10" fill="none"/>
	<path class="st3" d="M227.6,76.2c0,0-2.1,32.1,10,21.2s10.9-21.2,10.9-21.2s1.2,27,5.3,33.3c4.2,6.3,79.1,2.8,79.1,2.8l-15.3-71.9"
		stroke="#fff" stroke-width="15" stroke-miterlimit="10" fill="none"/>
	<path class="st3" d="M347.6,59l-22.8,27.4c0,0,7.9,0,11.4,4.2c3.5,4.2,7,16.5,11.4,11.4c4.4-5.1,9.5-16.3,9.5-16.3l4.4-17.7
		l6.3,35.2c0,0,3.5-29.6,11.2-19.6c0,0,3.5,22.2,8.4,24.6c4.9,2.4,6.5-12.5,6.5-12.5s5.3,14.2,12.1,9.3c6.7-4.9,6.7-15.6,6.7-15.6
		s-10.5-11.6-21.9,7.9"stroke="#fff" stroke-width="15" stroke-miterlimit="10" fill="none"/>
	<path class="st3" d="M427.6,79.9c0,0,0,30.7,7,20s5.3-14,5.3-14s4.9,20.7,11.4,18.6s7.7-12.3,7.7-12.3l-5.3-15.5"stroke="#fff" stroke-width="15" stroke-miterlimit="10" fill="none"/>
	<path class="st3" d="M558.8,57.8c0,0-5.1-15.6-16.7-5.6S530.7,96,530.7,96s1.6,38.6,18.6,31.9c17-6.7,16.7-11.2,16.7-11.2l0.9-67.8
		h8.4c0,0,1.2,61.6,8.6,55.8c7.4-5.7,3.3-11.3,3.3-11.3l1.2-9.5l24.4-2.3l-10.5-38.8c0,0-9.3,86.7,11.6,54.9"stroke="#fff" stroke-width="15" stroke-miterlimit="10" fill="none"/>
	<path class="st3" d="M617.6,79.2c0,0,5.6,27.2,14.2,13.3c8.6-14,10.2-19.8,10.2-19.8s-15.6,39.5-16.3,65.1s35.6-1.9,35.6-1.9
		l-8.6-85.8l4.9,7.9c0,0,20.9-31.4,28.8,6c7.9,37.4-36.3,36.7-36.3,36.7"stroke="#fff" stroke-width="15" stroke-miterlimit="10" fill="none"/>
	<path class="st3" d="M695.1,93.9c0,0,6.3,19.3,13.3,10.7s4.7-16.5,4.7-16.5s-10.5-8-19.5,9.4"stroke="#fff" stroke-width="15" stroke-miterlimit="10" fill="none"/>
	<path class="st3" d="M732.3,138.8L724.2,82c0,0,12.6-6.3,14.2,1.6c1.6,7.9,4.2,12.3-12.6,21.6"stroke="#fff" stroke-width="15" stroke-miterlimit="10" fill="none"/>
	<path class="st3" d="M762.8,66.5c0,0-7.7-14.7,7-15.8c0,0,8.2,6-4.5,19.5l4.5,33"stroke="#fff" stroke-width="15" stroke-miterlimit="10" fill="none"/>
</mask>
</svg>
